<svg version="1.1" xmlns="http://www.w3.org/2000/svg" xmlns:xlink="http://www.w3.org/1999/xlink" width="956" height="956"><defs/><g><text fill="#eeeeee" stroke="none" font-family="Arial" font-size="24px" font-style="normal" font-weight="normal" text-decoration="none" x="0" y="0">UNREGISTERED</text><text fill="#eeeeee" stroke="none" font-family="Arial" font-size="24px" font-style="normal" font-weight="normal" text-decoration="none" x="0" y="30">UNREGISTERED</text><text fill="#eeeeee" stroke="none" font-family="Arial" font-size="24px" font-style="normal" font-weight="normal" text-decoration="none" x="0" y="60">UNREGISTERED</text><text fill="#eeeeee" stroke="none" font-family="Arial" font-size="24px" font-style="normal" font-weight="normal" text-decoration="none" x="0" y="90">UNREGISTERED</text><text fill="#eeeeee" stroke="none" font-family="Arial" font-size="24px" font-style="normal" font-weight="normal" text-decoration="none" x="0" y="120">UNREGISTERED</text><text fill="#eeeeee" stroke="none" font-family="Arial" font-size="24px" font-style="normal" font-weight="normal" text-decoration="none" x="0" y="150">UNREGISTERED</text><text fill="#eeeeee" stroke="none" font-family="Arial" font-size="24px" font-style="normal" font-weight="normal" text-decoration="none" x="0" y="180">UNREGISTERED</text><text fill="#eeeeee" stroke="none" font-family="Arial" font-size="24px" font-style="normal" font-weight="normal" text-decoration="none" x="0" y="210">UNREGISTERED</text><text fill="#eeeeee" stroke="none" font-family="Arial" font-size="24px" font-style="normal" font-weight="normal" text-decoration="none" x="0" y="240">UNREGISTERED</text><text fill="#eeeeee" stroke="none" font-family="Arial" font-size="24px" font-style="normal" font-weight="normal" text-decoration="none" x="0" y="270">UNREGISTERED</text><text fill="#eeeeee" stroke="none" font-family="Arial" font-size="24px" font-style="normal" font-weight="normal" text-decoration="none" x="0" y="300">UNREGISTERED</text><text fill="#eeeeee" stroke="none" font-family="Arial" font-size="24px" font-style="normal" font-weight="normal" text-decoration="none" x="0" y="330">UNREGISTERED</text><text fill="#eeeeee" stroke="none" font-family="Arial" font-size="24px" font-style="normal" font-weight="normal" text-decoration="none" x="0" y="360">UNREGISTERED</text><text fill="#eeeeee" stroke="none" font-family="Arial" font-size="24px" font-style="normal" font-weight="normal" text-decoration="none" x="0" y="390">UNREGISTERED</text><text fill="#eeeeee" stroke="none" font-family="Arial" font-size="24px" font-style="normal" font-weight="normal" text-decoration="none" x="0" y="420">UNREGISTERED</text><text fill="#eeeeee" stroke="none" font-family="Arial" font-size="24px" font-style="normal" font-weight="normal" text-decoration="none" x="0" y="450">UNREGISTERED</text><text fill="#eeeeee" stroke="none" font-family="Arial" font-size="24px" font-style="normal" font-weight="normal" text-decoration="none" x="0" y="480">UNREGISTERED</text><text fill="#eeeeee" stroke="none" font-family="Arial" font-size="24px" font-style="normal" font-weight="normal" text-decoration="none" x="0" y="510">UNREGISTERED</text><text fill="#eeeeee" stroke="none" font-family="Arial" font-size="24px" font-style="normal" font-weight="normal" text-decoration="none" x="0" y="540">UNREGISTERED</text><text fill="#eeeeee" stroke="none" font-family="Arial" font-size="24px" font-style="normal" font-weight="normal" text-decoration="none" x="0" y="570">UNREGISTERED</text><text fill="#eeeeee" stroke="none" font-family="Arial" font-size="24px" font-style="normal" font-weight="normal" text-decoration="none" x="0" y="600">UNREGISTERED</text><text fill="#eeeeee" stroke="none" font-family="Arial" font-size="24px" font-style="normal" font-weight="normal" text-decoration="none" x="0" y="630">UNREGISTERED</text><text fill="#eeeeee" stroke="none" font-family="Arial" font-size="24px" font-style="normal" font-weight="normal" text-decoration="none" x="0" y="660">UNREGISTERED</text><text fill="#eeeeee" stroke="none" font-family="Arial" font-size="24px" font-style="normal" font-weight="normal" text-decoration="none" x="0" y="690">UNREGISTERED</text><text fill="#eeeeee" stroke="none" font-family="Arial" font-size="24px" font-style="normal" font-weight="normal" text-decoration="none" x="0" y="720">UNREGISTERED</text><text fill="#eeeeee" stroke="none" font-family="Arial" font-size="24px" font-style="normal" font-weight="normal" text-decoration="none" x="0" y="750">UNREGISTERED</text><text fill="#eeeeee" stroke="none" font-family="Arial" font-size="24px" font-style="normal" font-weight="normal" text-decoration="none" x="0" y="780">UNREGISTERED</text><text fill="#eeeeee" stroke="none" font-family="Arial" font-size="24px" font-style="normal" font-weight="normal" text-decoration="none" x="0" y="810">UNREGISTERED</text><text fill="#eeeeee" stroke="none" font-family="Arial" font-size="24px" font-style="normal" font-weight="normal" text-decoration="none" x="0" y="840">UNREGISTERED</text><text fill="#eeeeee" stroke="none" font-family="Arial" font-size="24px" font-style="normal" font-weight="normal" text-decoration="none" x="0" y="870">UNREGISTERED</text><text fill="#eeeeee" stroke="none" font-family="Arial" font-size="24px" font-style="normal" font-weight="normal" text-decoration="none" x="0" y="900">UNREGISTERED</text><text fill="#eeeeee" stroke="none" font-family="Arial" font-size="24px" font-style="normal" font-weight="normal" text-decoration="none" x="0" y="930">UNREGISTERED</text><text fill="#eeeeee" stroke="none" font-family="Arial" font-size="24px" font-style="normal" font-weight="normal" text-decoration="none" x="200" y="0">UNREGISTERED</text><text fill="#eeeeee" stroke="none" font-family="Arial" font-size="24px" font-style="normal" font-weight="normal" text-decoration="none" x="200" y="30">UNREGISTERED</text><text fill="#eeeeee" stroke="none" font-family="Arial" font-size="24px" font-style="normal" font-weight="normal" text-decoration="none" x="200" y="60">UNREGISTERED</text><text fill="#eeeeee" stroke="none" font-family="Arial" font-size="24px" font-style="normal" font-weight="normal" text-decoration="none" x="200" y="90">UNREGISTERED</text><text fill="#eeeeee" stroke="none" font-family="Arial" font-size="24px" font-style="normal" font-weight="normal" text-decoration="none" x="200" y="120">UNREGISTERED</text><text fill="#eeeeee" stroke="none" font-family="Arial" font-size="24px" font-style="normal" font-weight="normal" text-decoration="none" x="200" y="150">UNREGISTERED</text><text fill="#eeeeee" stroke="none" font-family="Arial" font-size="24px" font-style="normal" font-weight="normal" text-decoration="none" x="200" y="180">UNREGISTERED</text><text fill="#eeeeee" stroke="none" font-family="Arial" font-size="24px" font-style="normal" font-weight="normal" text-decoration="none" x="200" y="210">UNREGISTERED</text><text fill="#eeeeee" stroke="none" font-family="Arial" font-size="24px" font-style="normal" font-weight="normal" text-decoration="none" x="200" y="240">UNREGISTERED</text><text fill="#eeeeee" stroke="none" font-family="Arial" font-size="24px" font-style="normal" font-weight="normal" text-decoration="none" x="200" y="270">UNREGISTERED</text><text fill="#eeeeee" stroke="none" font-family="Arial" font-size="24px" font-style="normal" font-weight="normal" text-decoration="none" x="200" y="300">UNREGISTERED</text><text fill="#eeeeee" stroke="none" font-family="Arial" font-size="24px" font-style="normal" font-weight="normal" text-decoration="none" x="200" y="330">UNREGISTERED</text><text fill="#eeeeee" stroke="none" font-family="Arial" font-size="24px" font-style="normal" font-weight="normal" text-decoration="none" x="200" y="360">UNREGISTERED</text><text fill="#eeeeee" stroke="none" font-family="Arial" font-size="24px" font-style="normal" font-weight="normal" text-decoration="none" x="200" y="390">UNREGISTERED</text><text fill="#eeeeee" stroke="none" font-family="Arial" font-size="24px" font-style="normal" font-weight="normal" text-decoration="none" x="200" y="420">UNREGISTERED</text><text fill="#eeeeee" stroke="none" font-family="Arial" font-size="24px" font-style="normal" font-weight="normal" text-decoration="none" x="200" y="450">UNREGISTERED</text><text fill="#eeeeee" stroke="none" font-family="Arial" font-size="24px" font-style="normal" font-weight="normal" text-decoration="none" x="200" y="480">UNREGISTERED</text><text fill="#eeeeee" stroke="none" font-family="Arial" font-size="24px" font-style="normal" font-weight="normal" text-decoration="none" x="200" y="510">UNREGISTERED</text><text fill="#eeeeee" stroke="none" font-family="Arial" font-size="24px" font-style="normal" font-weight="normal" text-decoration="none" x="200" y="540">UNREGISTERED</text><text fill="#eeeeee" stroke="none" font-family="Arial" font-size="24px" font-style="normal" font-weight="normal" text-decoration="none" x="200" y="570">UNREGISTERED</text><text fill="#eeeeee" stroke="none" font-family="Arial" font-size="24px" font-style="normal" font-weight="normal" text-decoration="none" x="200" y="600">UNREGISTERED</text><text fill="#eeeeee" stroke="none" font-family="Arial" font-size="24px" font-style="normal" font-weight="normal" text-decoration="none" x="200" y="630">UNREGISTERED</text><text fill="#eeeeee" stroke="none" font-family="Arial" font-size="24px" font-style="normal" font-weight="normal" text-decoration="none" x="200" y="660">UNREGISTERED</text><text fill="#eeeeee" stroke="none" font-family="Arial" font-size="24px" font-style="normal" font-weight="normal" text-decoration="none" x="200" y="690">UNREGISTERED</text><text fill="#eeeeee" stroke="none" font-family="Arial" font-size="24px" font-style="normal" font-weight="normal" text-decoration="none" x="200" y="720">UNREGISTERED</text><text fill="#eeeeee" stroke="none" font-family="Arial" font-size="24px" font-style="normal" font-weight="normal" text-decoration="none" x="200" y="750">UNREGISTERED</text><text fill="#eeeeee" stroke="none" font-family="Arial" font-size="24px" font-style="normal" font-weight="normal" text-decoration="none" x="200" y="780">UNREGISTERED</text><text fill="#eeeeee" stroke="none" font-family="Arial" font-size="24px" font-style="normal" font-weight="normal" text-decoration="none" x="200" y="810">UNREGISTERED</text><text fill="#eeeeee" stroke="none" font-family="Arial" font-size="24px" font-style="normal" font-weight="normal" text-decoration="none" x="200" y="840">UNREGISTERED</text><text fill="#eeeeee" stroke="none" font-family="Arial" font-size="24px" font-style="normal" font-weight="normal" text-decoration="none" x="200" y="870">UNREGISTERED</text><text fill="#eeeeee" stroke="none" font-family="Arial" font-size="24px" font-style="normal" font-weight="normal" text-decoration="none" x="200" y="900">UNREGISTERED</text><text fill="#eeeeee" stroke="none" font-family="Arial" font-size="24px" font-style="normal" font-weight="normal" text-decoration="none" x="200" y="930">UNREGISTERED</text><text fill="#eeeeee" stroke="none" font-family="Arial" font-size="24px" font-style="normal" font-weight="normal" text-decoration="none" x="400" y="0">UNREGISTERED</text><text fill="#eeeeee" stroke="none" font-family="Arial" font-size="24px" font-style="normal" font-weight="normal" text-decoration="none" x="400" y="30">UNREGISTERED</text><text fill="#eeeeee" stroke="none" font-family="Arial" font-size="24px" font-style="normal" font-weight="normal" text-decoration="none" x="400" y="60">UNREGISTERED</text><text fill="#eeeeee" stroke="none" font-family="Arial" font-size="24px" font-style="normal" font-weight="normal" text-decoration="none" x="400" y="90">UNREGISTERED</text><text fill="#eeeeee" stroke="none" font-family="Arial" font-size="24px" font-style="normal" font-weight="normal" text-decoration="none" x="400" y="120">UNREGISTERED</text><text fill="#eeeeee" stroke="none" font-family="Arial" font-size="24px" font-style="normal" font-weight="normal" text-decoration="none" x="400" y="150">UNREGISTERED</text><text fill="#eeeeee" stroke="none" font-family="Arial" font-size="24px" font-style="normal" font-weight="normal" text-decoration="none" x="400" y="180">UNREGISTERED</text><text fill="#eeeeee" stroke="none" font-family="Arial" font-size="24px" font-style="normal" font-weight="normal" text-decoration="none" x="400" y="210">UNREGISTERED</text><text fill="#eeeeee" stroke="none" font-family="Arial" font-size="24px" font-style="normal" font-weight="normal" text-decoration="none" x="400" y="240">UNREGISTERED</text><text fill="#eeeeee" stroke="none" font-family="Arial" font-size="24px" font-style="normal" font-weight="normal" text-decoration="none" x="400" y="270">UNREGISTERED</text><text fill="#eeeeee" stroke="none" font-family="Arial" font-size="24px" font-style="normal" font-weight="normal" text-decoration="none" x="400" y="300">UNREGISTERED</text><text fill="#eeeeee" stroke="none" font-family="Arial" font-size="24px" font-style="normal" font-weight="normal" text-decoration="none" x="400" y="330">UNREGISTERED</text><text fill="#eeeeee" stroke="none" font-family="Arial" font-size="24px" font-style="normal" font-weight="normal" text-decoration="none" x="400" y="360">UNREGISTERED</text><text fill="#eeeeee" stroke="none" font-family="Arial" font-size="24px" font-style="normal" font-weight="normal" text-decoration="none" x="400" y="390">UNREGISTERED</text><text fill="#eeeeee" stroke="none" font-family="Arial" font-size="24px" font-style="normal" font-weight="normal" text-decoration="none" x="400" y="420">UNREGISTERED</text><text fill="#eeeeee" stroke="none" font-family="Arial" font-size="24px" font-style="normal" font-weight="normal" text-decoration="none" x="400" y="450">UNREGISTERED</text><text fill="#eeeeee" stroke="none" font-family="Arial" font-size="24px" font-style="normal" font-weight="normal" text-decoration="none" x="400" y="480">UNREGISTERED</text><text fill="#eeeeee" stroke="none" font-family="Arial" font-size="24px" font-style="normal" font-weight="normal" text-decoration="none" x="400" y="510">UNREGISTERED</text><text fill="#eeeeee" stroke="none" font-family="Arial" font-size="24px" font-style="normal" font-weight="normal" text-decoration="none" x="400" y="540">UNREGISTERED</text><text fill="#eeeeee" stroke="none" font-family="Arial" font-size="24px" font-style="normal" font-weight="normal" text-decoration="none" x="400" y="570">UNREGISTERED</text><text fill="#eeeeee" stroke="none" font-family="Arial" font-size="24px" font-style="normal" font-weight="normal" text-decoration="none" x="400" y="600">UNREGISTERED</text><text fill="#eeeeee" stroke="none" font-family="Arial" font-size="24px" font-style="normal" font-weight="normal" text-decoration="none" x="400" y="630">UNREGISTERED</text><text fill="#eeeeee" stroke="none" font-family="Arial" font-size="24px" font-style="normal" font-weight="normal" text-decoration="none" x="400" y="660">UNREGISTERED</text><text fill="#eeeeee" stroke="none" font-family="Arial" font-size="24px" font-style="normal" font-weight="normal" text-decoration="none" x="400" y="690">UNREGISTERED</text><text fill="#eeeeee" stroke="none" font-family="Arial" font-size="24px" font-style="normal" font-weight="normal" text-decoration="none" x="400" y="720">UNREGISTERED</text><text fill="#eeeeee" stroke="none" font-family="Arial" font-size="24px" font-style="normal" font-weight="normal" text-decoration="none" x="400" y="750">UNREGISTERED</text><text fill="#eeeeee" stroke="none" font-family="Arial" font-size="24px" font-style="normal" font-weight="normal" text-decoration="none" x="400" y="780">UNREGISTERED</text><text fill="#eeeeee" stroke="none" font-family="Arial" font-size="24px" font-style="normal" font-weight="normal" text-decoration="none" x="400" y="810">UNREGISTERED</text><text fill="#eeeeee" stroke="none" font-family="Arial" font-size="24px" font-style="normal" font-weight="normal" text-decoration="none" x="400" y="840">UNREGISTERED</text><text fill="#eeeeee" stroke="none" font-family="Arial" font-size="24px" font-style="normal" font-weight="normal" text-decoration="none" x="400" y="870">UNREGISTERED</text><text fill="#eeeeee" stroke="none" font-family="Arial" font-size="24px" font-style="normal" font-weight="normal" text-decoration="none" x="400" y="900">UNREGISTERED</text><text fill="#eeeeee" stroke="none" font-family="Arial" font-size="24px" font-style="normal" font-weight="normal" text-decoration="none" x="400" y="930">UNREGISTERED</text><text fill="#eeeeee" stroke="none" font-family="Arial" font-size="24px" font-style="normal" font-weight="normal" text-decoration="none" x="600" y="0">UNREGISTERED</text><text fill="#eeeeee" stroke="none" font-family="Arial" font-size="24px" font-style="normal" font-weight="normal" text-decoration="none" x="600" y="30">UNREGISTERED</text><text fill="#eeeeee" stroke="none" font-family="Arial" font-size="24px" font-style="normal" font-weight="normal" text-decoration="none" x="600" y="60">UNREGISTERED</text><text fill="#eeeeee" stroke="none" font-family="Arial" font-size="24px" font-style="normal" font-weight="normal" text-decoration="none" x="600" y="90">UNREGISTERED</text><text fill="#eeeeee" stroke="none" font-family="Arial" font-size="24px" font-style="normal" font-weight="normal" text-decoration="none" x="600" y="120">UNREGISTERED</text><text fill="#eeeeee" stroke="none" font-family="Arial" font-size="24px" font-style="normal" font-weight="normal" text-decoration="none" x="600" y="150">UNREGISTERED</text><text fill="#eeeeee" stroke="none" font-family="Arial" font-size="24px" font-style="normal" font-weight="normal" text-decoration="none" x="600" y="180">UNREGISTERED</text><text fill="#eeeeee" stroke="none" font-family="Arial" font-size="24px" font-style="normal" font-weight="normal" text-decoration="none" x="600" y="210">UNREGISTERED</text><text fill="#eeeeee" stroke="none" font-family="Arial" font-size="24px" font-style="normal" font-weight="normal" text-decoration="none" x="600" y="240">UNREGISTERED</text><text fill="#eeeeee" stroke="none" font-family="Arial" font-size="24px" font-style="normal" font-weight="normal" text-decoration="none" x="600" y="270">UNREGISTERED</text><text fill="#eeeeee" stroke="none" font-family="Arial" font-size="24px" font-style="normal" font-weight="normal" text-decoration="none" x="600" y="300">UNREGISTERED</text><text fill="#eeeeee" stroke="none" font-family="Arial" font-size="24px" font-style="normal" font-weight="normal" text-decoration="none" x="600" y="330">UNREGISTERED</text><text fill="#eeeeee" stroke="none" font-family="Arial" font-size="24px" font-style="normal" font-weight="normal" text-decoration="none" x="600" y="360">UNREGISTERED</text><text fill="#eeeeee" stroke="none" font-family="Arial" font-size="24px" font-style="normal" font-weight="normal" text-decoration="none" x="600" y="390">UNREGISTERED</text><text fill="#eeeeee" stroke="none" font-family="Arial" font-size="24px" font-style="normal" font-weight="normal" text-decoration="none" x="600" y="420">UNREGISTERED</text><text fill="#eeeeee" stroke="none" font-family="Arial" font-size="24px" font-style="normal" font-weight="normal" text-decoration="none" x="600" y="450">UNREGISTERED</text><text fill="#eeeeee" stroke="none" font-family="Arial" font-size="24px" font-style="normal" font-weight="normal" text-decoration="none" x="600" y="480">UNREGISTERED</text><text fill="#eeeeee" stroke="none" font-family="Arial" font-size="24px" font-style="normal" font-weight="normal" text-decoration="none" x="600" y="510">UNREGISTERED</text><text fill="#eeeeee" stroke="none" font-family="Arial" font-size="24px" font-style="normal" font-weight="normal" text-decoration="none" x="600" y="540">UNREGISTERED</text><text fill="#eeeeee" stroke="none" font-family="Arial" font-size="24px" font-style="normal" font-weight="normal" text-decoration="none" x="600" y="570">UNREGISTERED</text><text fill="#eeeeee" stroke="none" font-family="Arial" font-size="24px" font-style="normal" font-weight="normal" text-decoration="none" x="600" y="600">UNREGISTERED</text><text fill="#eeeeee" stroke="none" font-family="Arial" font-size="24px" font-style="normal" font-weight="normal" text-decoration="none" x="600" y="630">UNREGISTERED</text><text fill="#eeeeee" stroke="none" font-family="Arial" font-size="24px" font-style="normal" font-weight="normal" text-decoration="none" x="600" y="660">UNREGISTERED</text><text fill="#eeeeee" stroke="none" font-family="Arial" font-size="24px" font-style="normal" font-weight="normal" text-decoration="none" x="600" y="690">UNREGISTERED</text><text fill="#eeeeee" stroke="none" font-family="Arial" font-size="24px" font-style="normal" font-weight="normal" text-decoration="none" x="600" y="720">UNREGISTERED</text><text fill="#eeeeee" stroke="none" font-family="Arial" font-size="24px" font-style="normal" font-weight="normal" text-decoration="none" x="600" y="750">UNREGISTERED</text><text fill="#eeeeee" stroke="none" font-family="Arial" font-size="24px" font-style="normal" font-weight="normal" text-decoration="none" x="600" y="780">UNREGISTERED</text><text fill="#eeeeee" stroke="none" font-family="Arial" font-size="24px" font-style="normal" font-weight="normal" text-decoration="none" x="600" y="810">UNREGISTERED</text><text fill="#eeeeee" stroke="none" font-family="Arial" font-size="24px" font-style="normal" font-weight="normal" text-decoration="none" x="600" y="840">UNREGISTERED</text><text fill="#eeeeee" stroke="none" font-family="Arial" font-size="24px" font-style="normal" font-weight="normal" text-decoration="none" x="600" y="870">UNREGISTERED</text><text fill="#eeeeee" stroke="none" font-family="Arial" font-size="24px" font-style="normal" font-weight="normal" text-decoration="none" x="600" y="900">UNREGISTERED</text><text fill="#eeeeee" stroke="none" font-family="Arial" font-size="24px" font-style="normal" font-weight="normal" text-decoration="none" x="600" y="930">UNREGISTERED</text><text fill="#eeeeee" stroke="none" font-family="Arial" font-size="24px" font-style="normal" font-weight="normal" text-decoration="none" x="800" y="0">UNREGISTERED</text><text fill="#eeeeee" stroke="none" font-family="Arial" font-size="24px" font-style="normal" font-weight="normal" text-decoration="none" x="800" y="30">UNREGISTERED</text><text fill="#eeeeee" stroke="none" font-family="Arial" font-size="24px" font-style="normal" font-weight="normal" text-decoration="none" x="800" y="60">UNREGISTERED</text><text fill="#eeeeee" stroke="none" font-family="Arial" font-size="24px" font-style="normal" font-weight="normal" text-decoration="none" x="800" y="90">UNREGISTERED</text><text fill="#eeeeee" stroke="none" font-family="Arial" font-size="24px" font-style="normal" font-weight="normal" text-decoration="none" x="800" y="120">UNREGISTERED</text><text fill="#eeeeee" stroke="none" font-family="Arial" font-size="24px" font-style="normal" font-weight="normal" text-decoration="none" x="800" y="150">UNREGISTERED</text><text fill="#eeeeee" stroke="none" font-family="Arial" font-size="24px" font-style="normal" font-weight="normal" text-decoration="none" x="800" y="180">UNREGISTERED</text><text fill="#eeeeee" stroke="none" font-family="Arial" font-size="24px" font-style="normal" font-weight="normal" text-decoration="none" x="800" y="210">UNREGISTERED</text><text fill="#eeeeee" stroke="none" font-family="Arial" font-size="24px" font-style="normal" font-weight="normal" text-decoration="none" x="800" y="240">UNREGISTERED</text><text fill="#eeeeee" stroke="none" font-family="Arial" font-size="24px" font-style="normal" font-weight="normal" text-decoration="none" x="800" y="270">UNREGISTERED</text><text fill="#eeeeee" stroke="none" font-family="Arial" font-size="24px" font-style="normal" font-weight="normal" text-decoration="none" x="800" y="300">UNREGISTERED</text><text fill="#eeeeee" stroke="none" font-family="Arial" font-size="24px" font-style="normal" font-weight="normal" text-decoration="none" x="800" y="330">UNREGISTERED</text><text fill="#eeeeee" stroke="none" font-family="Arial" font-size="24px" font-style="normal" font-weight="normal" text-decoration="none" x="800" y="360">UNREGISTERED</text><text fill="#eeeeee" stroke="none" font-family="Arial" font-size="24px" font-style="normal" font-weight="normal" text-decoration="none" x="800" y="390">UNREGISTERED</text><text fill="#eeeeee" stroke="none" font-family="Arial" font-size="24px" font-style="normal" font-weight="normal" text-decoration="none" x="800" y="420">UNREGISTERED</text><text fill="#eeeeee" stroke="none" font-family="Arial" font-size="24px" font-style="normal" font-weight="normal" text-decoration="none" x="800" y="450">UNREGISTERED</text><text fill="#eeeeee" stroke="none" font-family="Arial" font-size="24px" font-style="normal" font-weight="normal" text-decoration="none" x="800" y="480">UNREGISTERED</text><text fill="#eeeeee" stroke="none" font-family="Arial" font-size="24px" font-style="normal" font-weight="normal" text-decoration="none" x="800" y="510">UNREGISTERED</text><text fill="#eeeeee" stroke="none" font-family="Arial" font-size="24px" font-style="normal" font-weight="normal" text-decoration="none" x="800" y="540">UNREGISTERED</text><text fill="#eeeeee" stroke="none" font-family="Arial" font-size="24px" font-style="normal" font-weight="normal" text-decoration="none" x="800" y="570">UNREGISTERED</text><text fill="#eeeeee" stroke="none" font-family="Arial" font-size="24px" font-style="normal" font-weight="normal" text-decoration="none" x="800" y="600">UNREGISTERED</text><text fill="#eeeeee" stroke="none" font-family="Arial" font-size="24px" font-style="normal" font-weight="normal" text-decoration="none" x="800" y="630">UNREGISTERED</text><text fill="#eeeeee" stroke="none" font-family="Arial" font-size="24px" font-style="normal" font-weight="normal" text-decoration="none" x="800" y="660">UNREGISTERED</text><text fill="#eeeeee" stroke="none" font-family="Arial" font-size="24px" font-style="normal" font-weight="normal" text-decoration="none" x="800" y="690">UNREGISTERED</text><text fill="#eeeeee" stroke="none" font-family="Arial" font-size="24px" font-style="normal" font-weight="normal" text-decoration="none" x="800" y="720">UNREGISTERED</text><text fill="#eeeeee" stroke="none" font-family="Arial" font-size="24px" font-style="normal" font-weight="normal" text-decoration="none" x="800" y="750">UNREGISTERED</text><text fill="#eeeeee" stroke="none" font-family="Arial" font-size="24px" font-style="normal" font-weight="normal" text-decoration="none" x="800" y="780">UNREGISTERED</text><text fill="#eeeeee" stroke="none" font-family="Arial" font-size="24px" font-style="normal" font-weight="normal" text-decoration="none" x="800" y="810">UNREGISTERED</text><text fill="#eeeeee" stroke="none" font-family="Arial" font-size="24px" font-style="normal" font-weight="normal" text-decoration="none" x="800" y="840">UNREGISTERED</text><text fill="#eeeeee" stroke="none" font-family="Arial" font-size="24px" font-style="normal" font-weight="normal" text-decoration="none" x="800" y="870">UNREGISTERED</text><text fill="#eeeeee" stroke="none" font-family="Arial" font-size="24px" font-style="normal" font-weight="normal" text-decoration="none" x="800" y="900">UNREGISTERED</text><text fill="#eeeeee" stroke="none" font-family="Arial" font-size="24px" font-style="normal" font-weight="normal" text-decoration="none" x="800" y="930">UNREGISTERED</text><g transform="translate(-214,-142) scale(1,1)"><path fill="#C0C0C0" stroke="none" d="M 631 198.5 C 631 176.68475039999998 665.697928 159 708.5 159 C 751.302072 159 786 176.68475039999998 786 198.5 C 786 220.31524960000002 751.302072 238 708.5 238 C 665.697928 238 631 220.31524960000002 631 198.5 Z" opacity="0.2"/></g><g transform="translate(-214,-142) scale(1,1)"><path fill="#ffffff" stroke="none" d="M 624 191.5 C 624 169.68475039999998 658.697928 152 701.5 152 C 744.302072 152 779 169.68475039999998 779 191.5 C 779 213.31524960000002 744.302072 231 701.5 231 C 658.697928 231 624 213.31524960000002 624 191.5 Z"/></g><g transform="translate(-214,-142) scale(1,1)"><path fill="none" stroke="#000000" d="M 624 191.5 C 624 169.68475039999998 658.697928 152 701.5 152 C 744.302072 152 779 169.68475039999998 779 191.5 C 779 213.31524960000002 744.302072 231 701.5 231 C 658.697928 231 624 213.31524960000002 624 191.5 Z" stroke-miterlimit="10"/></g><g transform="translate(-214,-142) scale(1,1)"><g><path fill="none" stroke="none"/><text fill="#000000" stroke="none" font-family="Arial" font-size="13px" font-style="normal" font-weight="bold" text-decoration="none" x="677.140869140625" y="198.5">S'inscire</text></g></g><g transform="translate(-214,-142) scale(1,1)"><path fill="#C0C0C0" stroke="none" d="M 631 295 C 631 272.908608 664.8024976 255 706.5 255 C 748.1975024 255 782 272.908608 782 295 C 782 317.091392 748.1975024 335 706.5 335 C 664.8024976 335 631 317.091392 631 295 Z" opacity="0.2"/></g><g transform="translate(-214,-142) scale(1,1)"><path fill="#ffffff" stroke="none" d="M 624 288 C 624 265.908608 657.8024976 248 699.5 248 C 741.1975024 248 775 265.908608 775 288 C 775 310.091392 741.1975024 328 699.5 328 C 657.8024976 328 624 310.091392 624 288 Z"/></g><g transform="translate(-214,-142) scale(1,1)"><path fill="none" stroke="#000000" d="M 624 288 C 624 265.908608 657.8024976 248 699.5 248 C 741.1975024 248 775 265.908608 775 288 C 775 310.091392 741.1975024 328 699.5 328 C 657.8024976 328 624 310.091392 624 288 Z" stroke-miterlimit="10"/></g><g transform="translate(-214,-142) scale(1,1)"><g><path fill="none" stroke="none"/><text fill="#000000" stroke="none" font-family="Arial" font-size="13px" font-style="normal" font-weight="bold" text-decoration="none" x="661.1982421875" y="295">Se connecter</text></g></g><g transform="translate(-214,-142) scale(1,1)"><path fill="#C0C0C0" stroke="none" d="M 575 499 C 575 474.6994688 634.322264 455 707.5 455 C 780.677736 455 840 474.6994688 840 499 C 840 523.3005312 780.677736 543 707.5 543 C 634.322264 543 575 523.3005312 575 499 Z" opacity="0.2"/></g><g transform="translate(-214,-142) scale(1,1)"><path fill="#ffffff" stroke="none" d="M 568 492 C 568 467.6994688 627.322264 448 700.5 448 C 773.677736 448 833 467.6994688 833 492 C 833 516.3005312 773.677736 536 700.5 536 C 627.322264 536 568 516.3005312 568 492 Z"/></g><g transform="translate(-214,-142) scale(1,1)"><path fill="none" stroke="#000000" d="M 568 492 C 568 467.6994688 627.322264 448 700.5 448 C 773.677736 448 833 467.6994688 833 492 C 833 516.3005312 773.677736 536 700.5 536 C 627.322264 536 568 516.3005312 568 492 Z" stroke-miterlimit="10"/></g><g transform="translate(-214,-142) scale(1,1)"><g><path fill="none" stroke="none"/><text fill="#000000" stroke="none" font-family="Arial" font-size="13px" font-style="normal" font-weight="bold" text-decoration="none" x="618.1201171875" y="499">Voir la liste des dévellopeurs</text></g></g><g transform="translate(-214,-142) scale(1,1)"><path fill="#C0C0C0" stroke="none" d="M 583 607 C 583 584.908608 634.9349632 567 699 567 C 763.0650368 567 815 584.908608 815 607 C 815 629.091392 763.0650368 647 699 647 C 634.9349632 647 583 629.091392 583 607 Z" opacity="0.2"/></g><g transform="translate(-214,-142) scale(1,1)"><path fill="#ffffff" stroke="none" d="M 576 600 C 576 577.908608 627.9349632 560 692 560 C 756.0650368 560 808 577.908608 808 600 C 808 622.091392 756.0650368 640 692 640 C 627.9349632 640 576 622.091392 576 600 Z"/></g><g transform="translate(-214,-142) scale(1,1)"><path fill="none" stroke="#000000" d="M 576 600 C 576 577.908608 627.9349632 560 692 560 C 756.0650368 560 808 577.908608 808 600 C 808 622.091392 756.0650368 640 692 640 C 627.9349632 640 576 622.091392 576 600 Z" stroke-miterlimit="10"/></g><g transform="translate(-214,-142) scale(1,1)"><g><path fill="none" stroke="none"/><text fill="#000000" stroke="none" font-family="Arial" font-size="13px" font-style="normal" font-weight="bold" text-decoration="none" x="620.45556640625" y="607">Ajouter des dévellopeurs</text></g></g><g transform="translate(-214,-142) scale(1,1)"><path fill="#C0C0C0" stroke="none" d="M 583 391 C 583 368.908608 639.8598304 351 710 351 C 780.1401696 351 837 368.908608 837 391 C 837 413.091392 780.1401696 431 710 431 C 639.8598304 431 583 413.091392 583 391 Z" opacity="0.2"/></g><g transform="translate(-214,-142) scale(1,1)"><path fill="#ffffff" stroke="none" d="M 576 384 C 576 361.908608 632.8598304 344 703 344 C 773.1401696 344 830 361.908608 830 384 C 830 406.091392 773.1401696 424 703 424 C 632.8598304 424 576 406.091392 576 384 Z"/></g><g transform="translate(-214,-142) scale(1,1)"><path fill="none" stroke="#000000" d="M 576 384 C 576 361.908608 632.8598304 344 703 344 C 773.1401696 344 830 361.908608 830 384 C 830 406.091392 773.1401696 424 703 424 C 632.8598304 424 576 406.091392 576 384 Z" stroke-miterlimit="10"/></g><g transform="translate(-214,-142) scale(1,1)"><g><path fill="none" stroke="none"/><text fill="#000000" stroke="none" font-family="Arial" font-size="13px" font-style="normal" font-weight="bold" text-decoration="none" x="623.136962890625" y="391">Accéder au tableau de bord</text></g></g><g transform="translate(-214,-142) scale(1,1)"><path fill="#C0C0C0" stroke="none" d="M 623 707 C 623 687.1177472 660.8319344 671 707.5 671 C 754.1680656 671 792 687.1177472 792 707 C 792 726.8822528 754.1680656 743 707.5 743 C 660.8319344 743 623 726.8822528 623 707 Z" opacity="0.2"/></g><g transform="translate(-214,-142) scale(1,1)"><path fill="#ffffff" stroke="none" d="M 616 700 C 616 680.1177472 653.8319344 664 700.5 664 C 747.1680656 664 785 680.1177472 785 700 C 785 719.8822528 747.1680656 736 700.5 736 C 653.8319344 736 616 719.8822528 616 700 Z"/></g><g transform="translate(-214,-142) scale(1,1)"><path fill="none" stroke="#000000" d="M 616 700 C 616 680.1177472 653.8319344 664 700.5 664 C 747.1680656 664 785 680.1177472 785 700 C 785 719.8822528 747.1680656 736 700.5 736 C 653.8319344 736 616 719.8822528 616 700 Z" stroke-miterlimit="10"/></g><g transform="translate(-214,-142) scale(1,1)"><g><path fill="none" stroke="none"/><text fill="#000000" stroke="none" font-family="Arial" font-size="13px" font-style="normal" font-weight="bold" text-decoration="none" x="649.1982421875" y="707">Accéder au forum</text></g></g><g transform="translate(-214,-142) scale(1,1)"><path fill="#C0C0C0" stroke="none" d="M 631 811 C 631 791.1177472 666.817216 775 711 775 C 755.182784 775 791 791.1177472 791 811 C 791 830.8822528 755.182784 847 711 847 C 666.817216 847 631 830.8822528 631 811 Z" opacity="0.2"/></g><g transform="translate(-214,-142) scale(1,1)"><path fill="#ffffff" stroke="none" d="M 624 804 C 624 784.1177472 659.817216 768 704 768 C 748.182784 768 784 784.1177472 784 804 C 784 823.8822528 748.182784 840 704 840 C 659.817216 840 624 823.8822528 624 804 Z"/></g><g transform="translate(-214,-142) scale(1,1)"><path fill="none" stroke="#000000" d="M 624 804 C 624 784.1177472 659.817216 768 704 768 C 748.182784 768 784 784.1177472 784 804 C 784 823.8822528 748.182784 840 704 840 C 659.817216 840 624 823.8822528 624 804 Z" stroke-miterlimit="10"/></g><g transform="translate(-214,-142) scale(1,1)"><g><path fill="none" stroke="none"/><text fill="#000000" stroke="none" font-family="Arial" font-size="13px" font-style="normal" font-weight="bold" text-decoration="none" x="660.63916015625" y="811">Publier un post</text></g></g><g transform="translate(-214,-142) scale(1,1)"><path fill="#C0C0C0" stroke="none" d="M 615 915 C 615 895.1177472 656.6375136 879 708 879 C 759.3624864 879 801 895.1177472 801 915 C 801 934.8822528 759.3624864 951 708 951 C 656.6375136 951 615 934.8822528 615 915 Z" opacity="0.2"/></g><g transform="translate(-214,-142) scale(1,1)"><path fill="#ffffff" stroke="none" d="M 608 908 C 608 888.1177472 649.6375136 872 701 872 C 752.3624864 872 794 888.1177472 794 908 C 794 927.8822528 752.3624864 944 701 944 C 649.6375136 944 608 927.8822528 608 908 Z"/></g><g transform="translate(-214,-142) scale(1,1)"><path fill="none" stroke="#000000" d="M 608 908 C 608 888.1177472 649.6375136 872 701 872 C 752.3624864 872 794 888.1177472 794 908 C 794 927.8822528 752.3624864 944 701 944 C 649.6375136 944 608 927.8822528 608 908 Z" stroke-miterlimit="10"/></g><g transform="translate(-214,-142) scale(1,1)"><g><path fill="none" stroke="none"/><text fill="#000000" stroke="none" font-family="Arial" font-size="13px" font-style="normal" font-weight="bold" text-decoration="none" x="643.918701171875" y="915">Commenter un post</text></g></g><g transform="translate(-214,-142) scale(1,1)"><path fill="#C0C0C0" stroke="none" d="M 623 1051 C 623 1026.6994688 660.1603616 1007 706 1007 C 751.8396384 1007 789 1026.6994688 789 1051 C 789 1075.3005312 751.8396384 1095 706 1095 C 660.1603616 1095 623 1075.3005312 623 1051 Z" opacity="0.2"/></g><g transform="translate(-214,-142) scale(1,1)"><path fill="#ffffff" stroke="none" d="M 616 1044 C 616 1019.6994688 653.1603616 1000 699 1000 C 744.8396384 1000 782 1019.6994688 782 1044 C 782 1068.3005312 744.8396384 1088 699 1088 C 653.1603616 1088 616 1068.3005312 616 1044 Z"/></g><g transform="translate(-214,-142) scale(1,1)"><path fill="none" stroke="#000000" d="M 616 1044 C 616 1019.6994688 653.1603616 1000 699 1000 C 744.8396384 1000 782 1019.6994688 782 1044 C 782 1068.3005312 744.8396384 1088 699 1088 C 653.1603616 1088 616 1068.3005312 616 1044 Z" stroke-miterlimit="10"/></g><g transform="translate(-214,-142) scale(1,1)"><g><path fill="none" stroke="none"/><text fill="#000000" stroke="none" font-family="Arial" font-size="13px" font-style="normal" font-weight="bold" text-decoration="none" x="653.46826171875" y="1051">Se déconnecter</text></g></g><g transform="translate(-214,-142) scale(1,1)"><path fill="#ffffff" stroke="none" d="M 260.69444122869317 497.84 C 260.69444122869317 488.53952396799997 268.03436562025684 481 277.088623046875 481 C 286.14288047349316 481 293.48280486505683 488.53952396799997 293.48280486505683 497.84 C 293.48280486505683 507.140476032 286.14288047349316 514.68 277.088623046875 514.68 C 268.03436562025684 514.68 260.69444122869317 507.140476032 260.69444122869317 497.84 Z"/></g><g transform="translate(-214,-142) scale(1,1)"><path fill="none" stroke="#000000" d="M 260.69444122869317 497.84 C 260.69444122869317 488.53952396799997 268.03436562025684 481 277.088623046875 481 C 286.14288047349316 481 293.48280486505683 488.53952396799997 293.48280486505683 497.84 C 293.48280486505683 507.140476032 286.14288047349316 514.68 277.088623046875 514.68 C 268.03436562025684 514.68 260.69444122869317 507.140476032 260.69444122869317 497.84 Z" stroke-miterlimit="10"/></g><g transform="translate(-214,-142) scale(1,1)"><path fill="none" stroke="#000000" d="M 277.088623046875 514.68 L 277.088623046875 547.3199999999999" stroke-miterlimit="10"/></g><g transform="translate(-214,-142) scale(1,1)"><path fill="none" stroke="#000000" d="M 259.7300775923295 526.92 L 294.4471685014205 526.92" stroke-miterlimit="10"/></g><g transform="translate(-214,-142) scale(1,1)"><path fill="none" stroke="#000000" d="M 277.088623046875 547.3199999999999 L 252.97953213778408 581" stroke-miterlimit="10"/></g><g transform="translate(-214,-142) scale(1,1)"><path fill="none" stroke="#000000" d="M 277.088623046875 547.3199999999999 L 301.1977139559659 581" stroke-miterlimit="10"/></g><g transform="translate(-214,-142) scale(1,1)"><g><path fill="none" stroke="none"/><text fill="#000000" stroke="none" font-family="Arial" font-size="13px" font-style="normal" font-weight="bold" text-decoration="none" x="258.66455078125" y="601.5">Admin</text></g></g><g transform="translate(-214,-142) scale(1,1)"><path fill="#ffffff" stroke="none" d="M 1092.730909090909 496.65 C 1092.730909090909 488.00674288 1099.567113181091 481 1108 481 C 1116.432886818909 481 1123.269090909091 488.00674288 1123.269090909091 496.65 C 1123.269090909091 505.29325711999996 1116.432886818909 512.3 1108 512.3 C 1099.567113181091 512.3 1092.730909090909 505.29325711999996 1092.730909090909 496.65 Z"/></g><g transform="translate(-214,-142) scale(1,1)"><path fill="none" stroke="#000000" d="M 1092.730909090909 496.65 C 1092.730909090909 488.00674288 1099.567113181091 481 1108 481 C 1116.432886818909 481 1123.269090909091 488.00674288 1123.269090909091 496.65 C 1123.269090909091 505.29325711999996 1116.432886818909 512.3 1108 512.3 C 1099.567113181091 512.3 1092.730909090909 505.29325711999996 1092.730909090909 496.65 Z" stroke-miterlimit="10"/></g><g transform="translate(-214,-142) scale(1,1)"><path fill="none" stroke="#000000" d="M 1108 512.3 L 1108 542.7" stroke-miterlimit="10"/></g><g transform="translate(-214,-142) scale(1,1)"><path fill="none" stroke="#000000" d="M 1091.8327272727272 523.7 L 1124.1672727272728 523.7" stroke-miterlimit="10"/></g><g transform="translate(-214,-142) scale(1,1)"><path fill="none" stroke="#000000" d="M 1108 542.7 L 1085.5454545454545 574" stroke-miterlimit="10"/></g><g transform="translate(-214,-142) scale(1,1)"><path fill="none" stroke="#000000" d="M 1108 542.7 L 1130.4545454545455 574" stroke-miterlimit="10"/></g><g transform="translate(-214,-142) scale(1,1)"><g><path fill="none" stroke="none"/><text fill="#000000" stroke="none" font-family="Arial" font-size="13px" font-style="normal" font-weight="bold" text-decoration="none" x="1071.142333984375" y="594.5">Développeur</text></g></g><g transform="translate(-214,-142) scale(1,1)"><path fill="none" stroke="#000000" d="M 331 498 L 652 232" stroke-miterlimit="10"/></g><g transform="translate(-214,-142) scale(1,1)"><path fill="none" stroke="#000000" d="M 331 510 L 631 329" stroke-miterlimit="10"/></g><g transform="translate(-214,-142) scale(1,1)"><path fill="none" stroke="#000000" d="M 331 523 L 593 425" stroke-miterlimit="10"/></g><g transform="translate(-214,-142) scale(1,1)"><path fill="none" stroke="#000000" d="M 331 536 L 567 508" stroke-miterlimit="10"/></g><g transform="translate(-214,-142) scale(1,1)"><path fill="none" stroke="#000000" d="M 331 550 L 575 584" stroke-miterlimit="10"/></g><g transform="translate(-214,-142) scale(1,1)"><path fill="none" stroke="#000000" d="M 331 563 L 615 668" stroke-miterlimit="10"/></g><g transform="translate(-214,-142) scale(1,1)"><path fill="none" stroke="#000000" d="M 331 576 L 643 767" stroke-miterlimit="10"/></g><g transform="translate(-214,-142) scale(1,1)"><path fill="none" stroke="#000000" d="M 331 590 L 658 871" stroke-miterlimit="10"/></g><g transform="translate(-214,-142) scale(1,1)"><path fill="none" stroke="#000000" d="M 331 607 L 661 999" stroke-miterlimit="10"/></g><g transform="translate(-214,-142) scale(1,1)"><path fill="none" stroke="#000000" d="M 1058 601 L 736 999" stroke-miterlimit="10"/></g><g transform="translate(-214,-142) scale(1,1)"><path fill="none" stroke="#000000" d="M 742 871 L 1055 588" stroke-miterlimit="10"/></g><g transform="translate(-214,-142) scale(1,1)"><path fill="none" stroke="#000000" d="M 761 767 L 1055 575" stroke-miterlimit="10"/></g><g transform="translate(-214,-142) scale(1,1)"><path fill="none" stroke="#000000" d="M 786 666 L 1055 561" stroke-miterlimit="10"/></g><g transform="translate(-214,-142) scale(1,1)"><path fill="none" stroke="#000000" d="M 766 329 L 1055 507" stroke-miterlimit="10"/></g></g></svg>